<?xml version="1.0" encoding="iso-8859-1"?>
<!-- Generator: Adobe Illustrator 19.0.0, SVG Export Plug-In . SVG Version: 6.00 Build 0)  -->
<svg version="1.1" xmlns="http://www.w3.org/2000/svg" xmlns:xlink="http://www.w3.org/1999/xlink" x="0px" y="0px"
	 viewBox="0 0 304 452" style="enable-background:new 0 0 304 452;" xml:space="preserve">
<g id="Fondo_xA0_Imagen_1_" style="display:none;">
	<image style="display:inline;overflow:visible;" width="304" height="452" id="Fondo_xA0_Imagen" xlink:href="DA4C5D1.jpg" >
	</image>
</g>
<g id="Capa_1_xA0_Imagen_1_" style="display:none;">
	<g style="display:inline;">
		<image style="overflow:visible;" width="304" height="452" id="Capa_1_xA0_Imagen_2_" xlink:href="DA4C5D3.png" >
		</image>
	</g>
</g>
<g id="Capa_7">
	<path style="fill:none;stroke:#000000;stroke-miterlimit:10;" d="M56.219,27.031"/>
	<path style="fill:none;stroke:#000000;stroke-miterlimit:10;" d="M53.14,23.877"/>
	<polygon style="fill:#17582E;" points="56.219,27.031 57.219,28.75 58.25,29.917 58.083,31.167 57.583,32.333 56.083,33.25 
		53.667,33.25 52.333,32.833 50.708,31.833 50.333,30.75 49.583,29.167 49.5,28 49,26.917 48.25,27.333 46.833,28.667 
		44.667,29.333 42.667,30.083 40.917,30.583 39,30.583 38.25,29.625 38.25,28.667 38.917,27.833 41,27.083 41.167,25.75 
		41.167,24.5 43.167,24 44,23.498 43.583,22.25 41.333,20.917 40.75,19.083 40.5,16.333 40.25,13.5 40.25,11.5 40.75,10.75 
		41.75,10.75 43.667,11.917 45.5,12.833 46.833,14.083 48.25,15.25 49.333,16.333 50.417,16.333 54.417,14.917 55.75,14.333 
		57.25,13.583 58.833,13.167 61.083,13.333 62.75,14 62.75,15 63.167,16.083 62.167,16.75 61.333,16.917 60,17 59.417,17.25 
		58.833,18.583 58.667,19.417 58.75,20.667 58.167,21.75 57.167,22.5 55.667,23 53.833,23.498 52.917,24 53.771,25.125 	"/>
	<polygon style="fill:#432A09;" points="85.5,125.875 84.375,124.5 84.938,123.875 84.938,122.875 84.375,121.438 83.625,120.813 
		82.313,120.313 81.938,119.375 81.563,117.813 81.563,116.875 81.563,115.813 81.188,114.688 80.625,113.438 79.688,112.25 
		79.688,111.5 80.813,110.938 82.125,110.938 83.625,110.938 84.438,111.625 85.5,112.5 86.563,113.563 87.938,114.625 
		88.625,115.25 89.688,115.125 90.875,114.813 91.938,113.75 92.688,112.813 93.5,111.563 94.875,110.188 95.813,109.313 
		96.938,108.938 97.875,108.938 98.563,109.625 99.188,110.438 98.813,112 98.25,113.563 97.5,114.625 97.5,115.563 97.813,116.188 
		97.625,117.063 96.438,117.875 95.313,118.5 96.5,118.938 97.25,119.5 97.813,120.375 97.438,121.938 96.813,122.813 
		95.313,123.063 94.125,122.375 93.313,121.813 92.25,121 90.875,120.375 90.188,120.875 90.375,122 89.813,123.25 89.438,123.625 
		88.375,124.188 87.688,124.25 86.625,124.875 	"/>
	<path style="fill:#CD72A6;" d="M142.563,90.938c0,0-10.25,4.563-15.438,1.188s4.813-5.688,4.813-5.688s2.32-0.875,2.16-3.875
		c-0.16-3,0.84-6.625,0.84-6.625l0.75-3.375c0,0,3.188-2.188,5.313,1.125s1.563,8.563,1.563,8.563L143.25,83l1.438-1.375
		c0,0,0.563-2.875,5.063-2.938s7.375,0.438,7.375,0.438s1.063,0.313,1.938,1.25s-9.188,6.938-9.188,6.938s1.5,4.063,1.313,8.188
		S149,99.313,149,99.313s-3.625,0.438-5.313-2.188S142.563,90.938,142.563,90.938z"/>
	<path style="fill:#91134A;" d="M179,67.938l-3.625,0.563l-1.125-0.281h-2.313l-1,0.906l-0.688,0.563l-0.938-0.875V67.5v-1.063
		L168.5,65.25l-1.375-0.938v-1.688l0.313-1.313l0.563-0.75l0.313-1.125l0.313-0.875c0,0,1.625-0.5,1.813-0.5s2,0,2,0l2.625-0.313
		L175.75,57l0.438-1.063l0.625-0.875l0.563,0.813l0.438,1.563l-0.563,2.25l-0.438,1.813l-0.75,0.875c0,0,0.25,0.688,0.438,0.813
		s1.188,1,1.188,1l0.813,0.875l0.5,0.875l1.188,0.75v1L179,67.938z"/>
	<path style="fill:#47438F;" d="M207.333,122.792l-1-1.417l-1.042-1.5l-0.542-1.458l-0.75-1.292l-1.375-1.625l-1.083-0.875
		l-0.167-1.042l0.333-0.75l1.083-0.708h0.958l0.958,0.208l0.625,0.708l0.583,0.792l1.042,0.792l1.125-0.208l0.667-0.833l1.542-1.083
		l1-0.958l1.917-0.625l1.917,0.292l0.458,1.042l0.542,1.583v1.042l-0.25,1.042l-0.417,1.458l-0.625,0.792
		c0,0-0.042,0.792,0.083,0.917s0.583,0.875,0.583,0.875l0.25,1.25l-1.917,0.458l-0.792-0.208l-1.208-0.208l-1.292-0.5l-0.875-0.125
		l-0.917,0.542l-0.417,1L207.333,122.792z"/>
	<polygon style="fill:#31190F;" points="269.958,146.833 273.458,147.208 275.208,147.625 276.458,147.917 277.375,148.458 
		278.208,148.875 278.833,149.5 278.833,150.042 278,150.583 276.083,151.583 274.792,152.333 273.583,153.042 272.583,154.292 
		271.875,154.292 270.25,154.292 270.708,154.917 271.375,155.375 271.375,156.292 270.542,157.375 269.417,158 268.625,157.417 
		267.917,156.75 267.625,155.667 267.625,154.583 266.75,154.083 265.75,154.167 264.167,154.417 263.167,155.542 261.833,156.375 
		260,156.5 259.667,155.542 259.667,154.542 260.125,153.292 260.917,152.417 261.917,151.667 262.25,150.875 262,149.917 
		261.125,148.667 260.208,147.042 259.667,145.917 258.708,145.042 257.75,144.333 257.75,143.292 258.542,142.958 260.333,142.458 
		261.833,142.25 262.667,142.25 263.167,142.833 263.875,143.5 265.083,144.375 265.833,144.958 266.875,145.458 267.375,145.792 
		268,145.667 268.667,145.583 269.292,145.667 269.792,146.167 	"/>
	<path style="fill:#3F7ABA;" d="M255.792,80.042l2.458-0.542l1.375,0.542c0,0,1,0.542,1.167,0.542c0.167,0,1.458,0.583,1.458,0.583
		l1.458-0.333l1.208-0.208l1.167,0.208l1-0.208l1-1.667l0.958-1.333l0.708-1.292c0,0,0.542-0.375,0.708-0.375
		c0.167,0,1.042,0.292,1.042,0.292s0.417,0.667,0.458,0.792c0.042,0.125,0.25,1.167,0.25,1.167L272,79.542l-0.083,1.375l-1.25,1.75
		c0,0-0.083,1.292-0.042,1.458s0.625,0.958,0.875,1.208s1.208,0.792,1.208,0.792s0.542,0.5,0.667,0.708
		c0.125,0.208,0.25,1.792,0.25,1.792s-1.167,0.375-1.333,0.458c-0.167,0.083-1.75,0.542-1.75,0.542h-2.625l-1.75-0.208l-1.083,0.208
		l-1.958,1.042l-1.208,0.5l-0.625,1.125l-1.958,2.333l-1.875,0.5l-1.083-0.917c0,0,0-1.167,0.083-1.292
		c0.083-0.125,0.375-1.583,0.375-1.583l0.583-1.208l0.375-1.583c0,0-0.542-1.333-0.542-1.458s-0.875-1.542-0.875-1.542l-1.333-1.167
		l-0.917-1.042l-0.375-1.167l-0.167-0.958l0.25-0.833l0.625-0.625L255.792,80.042z"/>
</g>
<g id="Capa_6">
	<g id="XMLID_2_">
		<g>
			<path d="M135.88,208.88c0,0,2.12,4.5,1.12,7.5v0.01c-4.07-0.36-9.51-1.23-15.63-3.26c0,0,1.51-5.25,5.38-5.63
				C130.62,207.12,131.38,205.5,135.88,208.88z"/>
		</g>
		<g>
			<path style="fill:none;stroke:#000000;stroke-width:2;stroke-miterlimit:10;" d="M121.37,213.13c-0.25-0.08-0.5-0.16-0.75-0.25
				c-1.94-0.67-3.95-1.46-6-2.38l-1.24-1.12c0,0-0.76-5.5,0.62-8.63c0,0,1.25-1.5,6.62,0c5.38,1.5,12.13,2.62,19.5,3.94
				c7.38,1.31,15,2.56,15,2.56l10.38,2c0,0,7.25,3.37-3.88,5.5c-11.12,2.13-17,1.75-17,1.75s-2.9,0.29-7.62-0.11
				C132.93,216.03,127.49,215.16,121.37,213.13z"/>
			<path style="fill:none;stroke:#000000;stroke-width:2;stroke-miterlimit:10;" d="M121.37,213.13c0,0,1.51-5.25,5.38-5.63
				c3.87-0.38,4.63-2,9.13,1.38c0,0,2.12,4.5,1.12,7.5"/>
		</g>
	</g>
	<path style="fill:none;stroke:#000000;stroke-width:2;stroke-miterlimit:10;" d="M71.875,283.5c1.199,0.245,8,0.875,8.375,0.875
		s3.529,0.32,4.75,0s4.125-2.125,4.125-2.125L92,280.875l3.625-0.75l4.5-1.125l2.25-1.5l1.125-1.875l0.875-2c0,0,0.5-1.125,0-2.5
		s-1.875-2-1.875-2s-0.688-0.625-1.375-1.25s-0.875,0.125-2-1.375s-0.5-2-0.5-2"/>
	<g id="XMLID_1_">
		<g>
			<polygon points="58.5,206.78 59.75,208.34 53,208.34 46.88,207.38 41.03,206.19 44.12,203 45.75,200.08 48.38,199.12 
				51.38,199.12 53.57,200.08 55.75,201.25 56.38,202.66 57.25,205.25 			"/>
		</g>
		<g>
			<path style="fill:none;stroke:#000000;stroke-width:2;stroke-miterlimit:10;" d="M32.22,159.93L35,151l5-13.5l6.5-17.38
				l5.62-12.37l6-11.87c0,0,25.79-44.46,66-58.26c46.05-15.79,42.05-13.79,89.26-14.12c56.67-0.4,82.37,64.75,82.37,64.75
				s10.87,35.13,0,77.13s-18,47.12-18,47.12s-29.13,43.88-44.63,58.62c-15.5,14.76-23.74,37-22.62,54.76
				c1.12,17.74-2.25,33.62,14.62,60"/>
			<path style="fill:none;stroke:#000000;stroke-width:2;stroke-miterlimit:10;" d="M188.12,320.62c0,0-4.74,27.5-74.37,46.88
				c0,0-9.75,4.25-44.87,9.25c0,0-19.88,2.5-24-23.5c-4.13-26-3.26-28.25-3.26-28.25s-2.24-7.38-7.74-29s-5.13-37.62-5.13-37.62
				l-1-17.5V226l0.87-13.25c0,0-0.12-2.13,1.38-3.5s5.75-4.13,5.75-4.13s-2.13-4.5-1.63-8.74c0,0-3.74-0.76-3.62-5.38s0.38-9,0.38-9
				l-0.26-9.12l0.48-3.92"/>
			<path style="fill:none;stroke:#000000;stroke-width:2;stroke-miterlimit:10;" d="M28.75,160.17c0,0,4.33-1.84,21,4.58
				s21.83,11.58,21.83,11.58l8,9.09c0,0,0.09,3.66-4.41,0c-4.5-3.67-7.84-8.09-19.34-11c-11.5-2.92-15.01-2.95-19.91-4.09
				c-1.88-0.44-3.51-0.92-4.82-1.37c-2.11-0.71-3.35-1.29-3.35-1.29S26.92,162.17,28.75,160.17z"/>
			<path style="fill:none;stroke:#000000;stroke-width:2;stroke-miterlimit:10;" d="M34.12,196.38h9.63h9l8-0.88h6.13l6.12,0.88
				l6.58,2.62l4.92,2.12c0,0,7.92,2.5-4.92,4.26c-12.83,1.74-17.46,2.96-17.46,2.96h-2.37H53l-6.12-0.96l-5.85-1.19l-5.28-1.07"/>
			<polyline style="fill:none;stroke:#000000;stroke-width:2;stroke-miterlimit:10;" points="41.03,206.19 44.12,203 45.75,200.08 
				48.38,199.12 51.38,199.12 53.57,200.08 55.75,201.25 56.38,202.66 57.25,205.25 58.5,206.78 59.75,208.34 			"/>
			<path style="fill:none;stroke:#000000;stroke-width:2;stroke-miterlimit:10;" d="M86.25,208.34l-2.75,6.91l-2.88,5.63L77.88,226
				l-1.63,7.12L73.88,241l-3.26,6.5l-1.87,5.75l-2.5,4.63l-1.75,4.37l-0.75,4.5v5c0,0-0.31,3.56,0,5.13
				c0.31,1.56,2.25,2.62,2.25,2.62l2.5,2.38c0,0,1.95,1.27,3.38,1.62"/>
		</g>
	</g>
	<path style="fill:none;stroke:#000000;stroke-width:2;stroke-miterlimit:10;" d="M48.125,318.313c0,0-0.063-1.563,2.125-2.313
		s4.375-2.5,4.375-2.5s1.188-1.313,6.563-1.5s6.25,0.125,10.938,0s9.063-0.5,9.063-0.5s5.875-0.938,8.125,0s3.125,1.875,5.563,2.563
		s6.125,0.635,6.125,0.635h4.375c0,0,5.313,0.365-3.125,7.365c0,0-12.75,4.313-15.938,4.938s-13.938,3.688-23.563-1.313
		s-10.125-4.5-11.875-5.25S48.125,318.313,48.125,318.313z"/>
	<path style="fill:none;stroke:#000000;stroke-width:2;stroke-miterlimit:10;" d="M49.438,318.313c0,0,10-0.5,23.25,0
		s20.688,0.438,20.688,0.438l8-0.329"/>
	<path style="fill:none;stroke:#000000;stroke-width:2;stroke-miterlimit:10;" d="M229.917,215.333c0,0,3.833-5.917,7.167,0
		c3.333,5.917-3.583,29.833-3.583,29.833s-12.167,8.917-9.5-0.917s3.583-13.083,3.583-13.083"/>
</g>
<g id="Capa_5">
	<path style="fill:none;stroke:#000000;stroke-width:2;stroke-miterlimit:10;" d="M152,179.25c0,0,17.875,3,29.375-1
		s7.625-4.625,7.625-4.625s-1.5,0.375-7.75,0.75s-15.5-1.625-15.5-1.625s-19.25-1.5-35.75,0s-18.875,14.875-18.875,14.875
		s0,0.75,4.125-2.375s6.625-3.875,9.875-4.625s5.875-2.125,12-2.125S148,178.125,152,179.25z"/>
</g>
<g id="Capa_3">
	<path style="fill:none;stroke:#000000;stroke-width:2;stroke-miterlimit:10;" d="M0,419.75c0,0,25.75-16.125,46.25-21.625
		c0,0,4.125-1.5,15.375-2.125S49.5,399.375,49.5,399.375s-4.375,8,20.25,17.75s46.25,11,46.25,11s65.75,5.125,101-14
		c0,0,18-7,21.875-14c0,0,4.875-2.25-11.25-10.375c0,0-8.75-5.875,3.25-2s14.625,6.375,14.625,6.375s9.25,7.125,18.5,16.25
		s12.125,9.875,18.5,14S296.875,434,296.875,434l3.25,2.5L304,439v13L0,453.333V419.75z"/>
</g>
<g id="Capa_4">
	<path style="fill:none;stroke:#000000;stroke-width:2;stroke-miterlimit:10;" d="M64.652,396.044c0,0,6.682,0.623,9.848-5.21
		c3.167-5.833,7.833-11.5,7.833-11.5L84.5,374.5"/>
</g>
</svg>
