<?xml version="1.0" encoding="iso-8859-1"?>
<!-- Generator: Adobe Illustrator 19.0.0, SVG Export Plug-In . SVG Version: 6.00 Build 0)  -->
<svg version="1.1" id="Capa_1" xmlns="http://www.w3.org/2000/svg" xmlns:xlink="http://www.w3.org/1999/xlink" x="0px" y="0px"
	 viewBox="0 0 778.461 674.181" style="enable-background:new 0 0 778.461 674.181;" xml:space="preserve">
<g id="XMLID_6_">
	<g id="XMLID_63_">
		<path id="XMLID_67_" style="fill:#FFFFFF;" d="M430.442,410.029c29.735,30.285,59.725,60.277,90.011,90.011
			c12.296,12.072,34.178,3.319,34.142-14.142c-0.001-0.359-0.002-0.719-0.002-1.078c-0.022-10.461-9.184-20.484-20-20
			c-11.125,0.498-19.638,8.786-20,20c-0.012,0.359-0.004,0.719,0.002,1.078c0.193,10.454,9.061,20.49,20,20
			c10.83-0.485,20.007-8.788,20-20c-0.05-74.576-0.062-149.152-0.033-223.729c0.008-21.104,0.019-42.208,0.033-63.312
			c0.007-10.462-9.204-20.484-20-20c-10.842,0.486-19.992,8.788-20,20c-0.05,74.487-0.061,148.975-0.033,223.462
			c0.008,21.193,0.019,42.385,0.033,63.578c13.333,0,26.667,0,40,0c-0.007-0.359-0.014-0.719-0.002-1.078c-13.333,0-26.667,0-40,0
			c0.001,0.359,0.001,0.719,0.002,1.078c11.381-4.714,22.761-9.428,34.142-14.142c-30.286-29.733-60.276-59.726-90.011-90.011
			c-7.342-7.477-21.023-7.91-28.284,0C423.058,389.789,422.609,402.05,430.442,410.029L430.442,410.029z"/>
	</g>
</g>
<g id="XMLID_1_">
	<g id="XMLID_57_">
		<path id="XMLID_61_" style="fill:#FFFFFF;" d="M226.81,198.857c-0.217,74.79-0.266,149.581-0.144,224.372
			c0.035,21.247,0.083,42.494,0.144,63.74c0.05,17.285,21.869,26.443,34.142,14.142c0.68-0.682,1.478-1.366,2.092-2.119
			c6.605-8.091,8.507-20.475,0-28.284c-8.165-7.495-20.161-7.689-28.284,0c-0.71,0.672-1.473,1.36-2.092,2.119
			c-6.605,8.091-8.507,20.475,0,28.284c8.076,7.413,20.268,7.796,28.284,0c39.648-38.558,78.191-78.225,117.356-117.269
			c4.662-4.648,9.333-9.287,14.015-13.914c5.365-5.302,12.249-10.537,15.883-17.215c3.641-6.691,3.426-14.638-0.407-21.189
			c-2.114-3.612-5.69-6.612-8.643-9.561c-4.92-4.912-9.85-9.814-14.823-14.673c-19.31-18.864-38.478-37.786-57.361-57.087
			c-21.446-21.922-42.9-43.84-64.947-65.161c-7.527-7.279-20.894-8.051-28.284,0c-7.228,7.874-8.034,20.514,0,28.284
			c24.126,23.332,47.537,47.38,71.013,71.36c23.544,24.05,47.839,47.28,71.634,71.074c-1.714-2.942-3.429-5.884-5.143-8.825
			c0.136,0.333,0.272,0.667,0.407,1c0.672-5.137,1.344-10.274,2.016-15.411c2.211-2.499,2.309-2.715,0.294-0.65
			c-0.712,0.698-1.424,1.397-2.135,2.096c-1.656,1.627-3.31,3.255-4.963,4.885c-2.821,2.782-5.638,5.569-8.452,8.36
			c-6.052,6.003-12.085,12.024-18.108,18.056c-11.929,11.949-23.811,23.945-35.699,35.935c-23.823,24.03-47.68,48.028-71.939,71.62
			c9.428,9.428,18.856,18.856,28.284,28.284c0.619-0.759,1.382-1.447,2.092-2.119c-9.428-9.428-18.856-18.856-28.284-28.284
			c-0.614,0.753-1.412,1.437-2.092,2.119c11.381,4.714,22.761,9.428,34.142,14.142c-0.216-74.891-0.267-149.783-0.144-224.675
			c0.034-21.146,0.083-42.291,0.144-63.437c0.03-10.462-9.221-20.483-20-20C235.948,179.344,226.843,187.644,226.81,198.857
			L226.81,198.857z"/>
	</g>
</g>
<g id="XMLID_3_">
	<line id="XMLID_45_" style="fill:#329642;" x1="347.44" y1="197.857" x2="491.321" y2="341.738"/>
	<g id="XMLID_39_">
		<g id="XMLID_43_">
			<path id="XMLID_44_" style="fill:#55973D;" d="M336.704,214.522l140.917,140.917c0.324-0.57-2.333-3.279-2.876-3.822
				c-9.253-9.56-18.162-18.856-27.237-28.701c-0.125-0.177-64.509-67.456-86.368-138.758c-7.352,7.122-7.021,21.6-0.299,39.315
				C351.505,218.476,338.948,212.835,336.704,214.522z"/>
		</g>
	</g>
</g>
<g id="XMLID_4_">
	<g id="XMLID_29_">
		<g id="XMLID_36_">
			<path id="XMLID_37_" style="fill:#55973D;" d="M453.014,189.399L410.9,259.858c0.58,0.263,1.413-1.06,1.575-1.331
				c2.997-4.592,5.952-9.003,9.247-13.453c0.077-0.057,21.508-31.922,65.438-37.275c-8.75-5.308-19.55-6.738-29.874-4.617
				C456.795,198.023,455.317,190.965,453.014,189.399z"/>
		</g>
	</g>
</g>
<g id="XMLID_35_">
	<g id="XMLID_70_">
		<path id="XMLID_74_" style="fill:#FFFFFF;" d="M391.682,45.646c9.226,6.654,18.451,13.308,27.677,19.962
			c22.017,15.879,44.033,31.759,66.05,47.638c26.766,19.305,53.531,38.61,80.297,57.914c23.041,16.618,46.082,33.237,69.123,49.855
			c7.675,5.536,15.351,11.072,23.026,16.607c3.441,2.482,7.015,5.907,10.826,7.808c0.171,0.085,0.329,0.237,0.485,0.35
			c-0.044-2.946-0.088-5.893-0.132-8.839c-7.217,22.476-14.433,44.952-21.65,67.428c-14.648,45.621-29.297,91.243-43.945,136.864
			c-11.556,35.991-23.112,71.982-34.669,107.973c-1.203,3.748-2.407,7.496-3.61,11.245c-0.537,1.672-0.342,1.769-1.232,2.078
			c-2.32,0.806-6.367,0.022-8.791,0.031c-5.833,0.02-11.666,0.041-17.499,0.061c-42.062,0.146-84.123,0.292-126.185,0.438
			c-46.048,0.16-92.096,0.32-138.144,0.48c-13.926,0.048-27.852,0.097-41.778,0.145c-2.268,0.008-6.375,0.842-8.532,0.03
			c-0.751-0.283-0.73-0.783-1.242-2.341c-9.488-28.858-18.975-57.717-28.463-86.575c-15.143-46.06-30.285-92.12-45.428-138.179
			c-10.199-31.023-20.399-62.046-30.598-93.07c-0.513-1.562-1.027-3.123-1.54-4.685c-0.044,2.946-0.088,5.893-0.132,8.839
			c9.179-6.718,18.358-13.436,27.537-20.154c21.906-16.032,43.811-32.064,65.717-48.096c26.631-19.49,53.262-38.98,79.893-58.47
			c22.925-16.778,45.85-33.556,68.775-50.334c7.637-5.589,15.273-11.178,22.91-16.767c3.265-2.39,8.119-4.787,10.771-7.883
			C391.318,45.861,391.532,45.756,391.682,45.646c0.813-0.595,0.495-3.617,0.495-4.5c0-0.391-0.476-4.514-0.495-4.5
			c-9.179,6.718-18.358,13.436-27.537,20.154c-21.906,16.032-43.811,32.064-65.717,48.096c-26.631,19.49-53.262,38.98-79.893,58.47
			c-22.925,16.778-45.85,33.556-68.775,50.334c-7.637,5.589-15.273,11.178-22.91,16.767c-3.248,2.377-8.153,4.784-10.771,7.883
			c-0.118,0.139-0.333,0.244-0.483,0.353c-1.338,0.979-0.59,7.446-0.132,8.839c3.553,10.806,7.105,21.612,10.658,32.417
			c8.478,25.788,16.956,51.575,25.434,77.363c10.307,31.35,20.614,62.701,30.92,94.051c8.872,26.988,17.745,53.975,26.617,80.963
			c2.956,8.99,5.911,17.98,8.867,26.97c0.911,2.77,1.821,5.54,2.732,8.31c0.38,1.155,0.654,3.418,1.437,4.37
			c0.103,0.125,0.134,0.408,0.187,0.568c0.044,0.054,0.088,0.107,0.132,0.161c11.375-0.039,22.749-0.079,34.124-0.118
			c27.145-0.094,54.291-0.188,81.436-0.283c33.001-0.115,66.002-0.229,99.003-0.344c28.408-0.099,56.817-0.197,85.225-0.296
			c9.463-0.033,18.927-0.066,28.39-0.099c2.916-0.01,5.832-0.02,8.748-0.03c1.173-0.004,3.505,0.452,4.6-0.016
			c0.144-0.061,0.433-0.001,0.598-0.002c0.044-0.054,0.088-0.107,0.132-0.161c3.477-10.83,6.955-21.66,10.432-32.491
			c8.299-25.846,16.598-51.692,24.896-77.538c10.089-31.421,20.178-62.842,30.267-94.263c8.685-27.048,17.37-54.097,26.055-81.145
			c4.23-13.174,9.26-26.347,12.76-39.74c0.05-0.192,0.122-0.38,0.183-0.569c0.443-1.378,1.231-7.856-0.132-8.839
			c-9.226-6.654-18.451-13.308-27.677-19.962c-22.016-15.879-44.033-31.759-66.05-47.638
			c-26.766-19.305-53.531-38.609-80.297-57.914C472.1,94.648,449.06,78.03,426.019,61.412c-7.675-5.536-15.351-11.072-23.026-16.607
			c-2.365-1.706-4.73-3.411-7.095-5.117c-0.854-0.616-2.667-2.539-3.731-2.691c-0.14-0.02-0.361-0.26-0.485-0.35
			c-0.11-0.079-0.495,4.139-0.495,4.5C391.187,42.041,390.82,45.024,391.682,45.646z"/>
	</g>
</g>
</svg>
