<?xml version="1.0" encoding="iso-8859-1"?>
<!-- Generator: Adobe Illustrator 19.0.0, SVG Export Plug-In . SVG Version: 6.00 Build 0)  -->
<svg version="1.1" id="Capa_1" xmlns="http://www.w3.org/2000/svg" xmlns:xlink="http://www.w3.org/1999/xlink" x="0px" y="0px"
	 viewBox="0 0 481.476 416.979" style="enable-background:new 0 0 481.476 416.979;" xml:space="preserve">
<g id="XMLID_6_">
	<g id="XMLID_37_">
		<path id="XMLID_41_" d="M280.95,280.428c29.735,30.285,59.725,60.277,90.011,90.011c12.296,12.072,34.178,3.319,34.142-14.142
			c-0.001-0.359-0.001-0.719-0.002-1.078c-0.022-10.461-9.184-20.484-20-20c-11.125,0.498-19.638,8.786-20,20
			c-0.012,0.359-0.004,0.719,0.002,1.078c0.193,10.454,9.061,20.49,20,20c10.83-0.485,20.007-8.788,20-20
			c-0.05-74.576-0.062-149.152-0.033-223.729c0.008-21.104,0.019-42.208,0.033-63.312c0.007-10.462-9.204-20.484-20-20
			c-10.842,0.486-19.992,8.788-20,20c-0.05,74.487-0.061,148.975-0.033,223.462c0.008,21.193,0.019,42.385,0.033,63.578
			c13.333,0,26.667,0,40,0c-0.007-0.359-0.014-0.719-0.002-1.078c-13.333,0-26.667,0-40,0c0.001,0.359,0.001,0.719,0.002,1.078
			c11.381-4.714,22.761-9.428,34.142-14.142c-30.286-29.733-60.276-59.726-90.011-90.011c-7.342-7.477-21.023-7.91-28.284,0
			C273.565,260.188,273.116,272.449,280.95,280.428L280.95,280.428z"/>
	</g>
</g>
<g id="XMLID_1_">
	<g id="XMLID_23_">
		<path id="XMLID_35_" d="M77.318,69.256c-0.217,74.79-0.266,149.581-0.144,224.372c0.035,21.247,0.083,42.494,0.144,63.74
			c0.05,17.285,21.869,26.443,34.142,14.142c0.68-0.682,1.478-1.366,2.092-2.119c6.605-8.091,8.507-20.475,0-28.284
			c-8.165-7.495-20.161-7.689-28.284,0c-0.71,0.672-1.473,1.36-2.092,2.119c-6.605,8.091-8.507,20.475,0,28.284
			c8.076,7.413,20.268,7.796,28.284,0c39.648-38.558,78.191-78.225,117.356-117.269c4.662-4.648,9.333-9.287,14.015-13.914
			c5.365-5.302,12.249-10.537,15.883-17.215c3.641-6.691,3.426-14.638-0.407-21.189c-2.114-3.612-5.69-6.612-8.643-9.561
			c-4.92-4.912-9.85-9.814-14.823-14.673c-19.31-18.864-38.478-37.786-57.361-57.087c-21.446-21.922-42.9-43.84-64.947-65.161
			c-7.527-7.279-20.894-8.051-28.284,0c-7.228,7.874-8.034,20.514,0,28.284c24.126,23.332,47.537,47.38,71.013,71.36
			c23.544,24.05,47.839,47.28,71.634,71.074c-1.714-2.942-3.429-5.884-5.143-8.825c0.136,0.333,0.272,0.667,0.407,1
			c0.672-5.137,1.344-10.274,2.016-15.411c2.211-2.499,2.309-2.715,0.294-0.65c-0.712,0.698-1.424,1.397-2.135,2.096
			c-1.656,1.627-3.31,3.255-4.963,4.885c-2.821,2.782-5.638,5.569-8.452,8.36c-6.052,6.003-12.085,12.024-18.108,18.056
			c-11.929,11.949-23.811,23.945-35.699,35.935c-23.823,24.03-47.68,48.028-71.939,71.62c9.428,9.428,18.856,18.856,28.284,28.284
			c0.619-0.759,1.382-1.447,2.092-2.119c-9.428-9.428-18.856-18.856-28.284-28.284c-0.614,0.753-1.412,1.437-2.092,2.119
			c11.381,4.714,22.761,9.428,34.142,14.142c-0.216-74.891-0.266-149.783-0.144-224.675c0.034-21.146,0.083-42.291,0.144-63.437
			c0.03-10.462-9.221-20.483-20-20C86.456,49.743,77.35,58.043,77.318,69.256L77.318,69.256z"/>
	</g>
</g>
<g id="XMLID_3_">
	<line id="XMLID_26_" style="fill:#329642;" x1="198.947" y1="69.256" x2="342.828" y2="213.137"/>
	<g id="XMLID_17_">
		<g id="XMLID_22_">
			<path id="XMLID_25_" style="fill:#55973D;" d="M188.212,85.921l140.917,140.917c0.324-0.57-2.333-3.279-2.876-3.822
				c-9.253-9.56-18.162-18.856-27.237-28.701c-0.125-0.177-64.509-67.456-86.368-138.758c-7.352,7.122-7.021,21.6-0.299,39.315
				C203.013,89.874,190.456,84.234,188.212,85.921z"/>
		</g>
	</g>
</g>
<g id="XMLID_4_">
	<g id="XMLID_27_">
		<g id="XMLID_31_">
			<path id="XMLID_32_" style="fill:#55973D;" d="M304.522,60.798l-42.114,70.458c0.58,0.263,1.413-1.06,1.575-1.331
				c2.997-4.592,5.952-9.003,9.247-13.453c0.077-0.057,21.508-31.922,65.438-37.275c-8.75-5.308-19.55-6.738-29.874-4.617
				C308.303,69.422,306.824,62.364,304.522,60.798z"/>
		</g>
	</g>
</g>
</svg>
